<svg id="Layer_1" enable-background="new 0 0 512 512" height="512" viewBox="0 0 512 512" width="512" xmlns="http://www.w3.org/2000/svg"><g><path d="m88 320h40c8.836 0 16-7.164 16-16s-7.164-16-16-16h-40c-22.056 0-40 17.944-40 40s17.944 40 40 40h16c4.411 0 8 3.589 8 8s-3.589 8-8 8h-40c-8.836 0-16 7.164-16 16s7.164 16 16 16h40c22.056 0 40-17.944 40-40s-17.944-40-40-40h-16c-4.411 0-8-3.589-8-8s3.589-8 8-8z"/><path d="m448 320c8.836 0 16-7.164 16-16s-7.164-16-16-16h-64c-8.836 0-16 7.164-16 16v96c0 8.836 7.164 16 16 16h64c8.836 0 16-7.164 16-16s-7.164-16-16-16h-48v-16h32c8.836 0 16-7.164 16-16s-7.164-16-16-16h-32v-16z"/><path d="m336 384h-32v-80c0-8.836-7.164-16-16-16s-16 7.164-16 16v96c0 8.836 7.164 16 16 16h48c8.836 0 16-7.164 16-16s-7.164-16-16-16z"/><path d="m208 288c-26.467 0-48 21.533-48 48v64c0 8.836 7.164 16 16 16s16-7.164 16-16v-24h32v24c0 8.836 7.164 16 16 16s16-7.164 16-16v-64c0-26.467-21.533-48-48-48zm-16 56v-8c0-8.822 7.178-16 16-16s16 7.178 16 16v8z"/><path d="m464 192h-41.373l-123.318-123.318c15.191-31.683-8.025-68.682-43.309-68.682-35.291 0-58.494 37.01-43.309 68.682l-123.318 123.318h-41.373c-26.467 0-48 21.533-48 48v224c0 26.467 21.533 48 48 48h416c26.467 0 48-21.533 48-48v-224c0-26.467-21.533-48-48-48zm-208-160c8.822 0 16 7.178 16 16s-7.178 16-16 16-16-7.178-16-16 7.178-16 16-16zm-20.682 59.309c12.92 6.195 28.186 6.318 41.363 0l100.692 100.691h-242.746zm244.682 372.691c0 8.822-7.178 16-16 16h-416c-8.822 0-16-7.178-16-16v-224c0-8.822 7.178-16 16-16h416c8.822 0 16 7.178 16 16z"/></g></svg>